<svg xmlns="http://www.w3.org/2000/svg" xmlns:xlink="http://www.w3.org/1999/xlink" xmlns:sketch="http://www.bohemiancoding.com/sketch/ns" viewBox="0 0 30 37.5" version="1.1" x="0px" y="0px"><title>file_074-documents-text-document-paper-files-doc-empty</title><desc>Created with Sketch.</desc><g stroke="none" stroke-width="1" fill="none" fill-rule="evenodd" sketch:type="MSPage"><g sketch:type="MSArtboardGroup" transform="translate(-90.000000, -315.000000)" fill="#000000"><g sketch:type="MSLayerGroup" transform="translate(95.000000, 317.000000)"><path d="M2,23.5 C2,23.7761424 2.22385763,24 2.5,24 L19.5,24 C19.7761424,24 20,23.7761424 20,23.5 L20,5.19999981 C20,5.06739155 19.9473216,4.94021457 19.8535534,4.84644638 L15.1535526,0.146446574 C15.0597844,0.0526784063 14.9326075,0 14.7999992,0 L2.5,0 C2.22385763,0 2,0.223857625 2,0.5 L2,23.5 Z M19,22.9999997 L3,23 L3,1 L14,1 L14,5.5 C14,5.77614237 14.2238576,6 14.5,6 L19,6 L19,22.9999997 Z M18.5900002,5 L15,5 L15,1.40999985 L18.5900002,5 Z" sketch:type="MSShapeGroup"/><path d="M18,25.5 C18,25.7761424 17.7761424,26 17.5,26 L0.5,26 C0.223857625,26 0,25.7761424 0,25.5 L0,2.5 C0,2.22385763 0.223857625,2 0.5,2 L3,2 L3,3 L1,3 L1,25 L17,24.9999997 L17,23 L18,23 L18,25.5 Z" sketch:type="MSShapeGroup"/></g></g></g><text x="0" y="45" fill="#000000" font-size="5px" font-weight="bold" font-family="'Helvetica Neue', Helvetica, Arial-Unicode, Arial, Sans-serif">Created by Pham Thi Dieu Linh</text><text x="0" y="50" fill="#000000" font-size="5px" font-weight="bold" font-family="'Helvetica Neue', Helvetica, Arial-Unicode, Arial, Sans-serif">from the Noun Project</text></svg>