<svg xmlns="http://www.w3.org/2000/svg" xmlns:xlink="http://www.w3.org/1999/xlink" viewBox="0 0 100 125" version="1.1" x="0px" y="0px"><title>6.3</title><desc>Created with Sketch.</desc><g stroke="none" stroke-width="1" fill="none" fill-rule="evenodd"><g fill-rule="nonzero" fill="#000000"><path d="M12,19 L27.9138502,19 L27.9138502,19 C28.6156597,19 29.2952584,19.2460487 29.8344034,19.6953362 L34.7218655,23.7682213 L34.7218655,23.7682213 C34.9015805,23.9179838 35.1281134,24 35.3620499,24 L78,24 L78,24 C79.6568542,24 81,25.3431458 81,27 L81,35 C81,35.5522847 81.4477153,36 82,36 L87.2601518,36 L87.2601518,36 C88.9170061,36 90.2601518,37.3431458 90.2601518,39 C90.2601518,39.218887 90.2361963,39.4371167 90.188713,39.6507914 L81.5220464,78.6507914 C81.2170213,80.023404 79.9995811,81 78.5934852,81 L12,81 C10.3431458,81 9,79.6568542 9,78 L9,22 L9,22 C9,20.3431458 10.3431458,19 12,19 L12,19 Z M86.9897229,40.2169305 C87.0055506,40.1457056 87.0135358,40.0729623 87.0135358,40 C87.0135358,39.4477153 86.5658205,39 86.0135358,39 L82.6300759,39 L21.5,39 C20.6715729,39 20,38.3284271 20,37.5 C20,36.6715729 20.6715729,36 21.5,36 L77,36 C77.5522847,36 78,35.5522847 78,35 L78,28 C78,27.4477153 77.5522847,27 77,27 L77,27 L35,27 C34.2981905,27 33.6185918,26.7539513 33.0794468,26.3046638 L33.0794468,26.3046638 L28.1919847,22.2317787 C28.0122697,22.0820162 27.7857368,22 27.5518003,22 L27.5518003,22 L13,22 C12.4477153,22 12,22.4477153 12,23 L12,77 C12,77.5522847 12.4477153,78 13,78 L77.7913136,78 C78.2600122,78 78.6658256,77.674468 78.7675006,77.2169305 L78.7675006,77.2169305 L86.9897229,40.2169305 Z"/></g></g><text x="0" y="115" fill="#000000" font-size="5px" font-weight="bold" font-family="'Helvetica Neue', Helvetica, Arial-Unicode, Arial, Sans-serif">Created by Landan Lloyd</text><text x="0" y="120" fill="#000000" font-size="5px" font-weight="bold" font-family="'Helvetica Neue', Helvetica, Arial-Unicode, Arial, Sans-serif">from the Noun Project</text></svg>