<svg xmlns="http://www.w3.org/2000/svg" xmlns:xlink="http://www.w3.org/1999/xlink" xmlns:sketch="http://www.bohemiancoding.com/sketch/ns" viewBox="0 0 30 37.5" version="1.1" x="0px" y="0px"><title>file_039-image_file-fomat-document-paper-picture-photo-jpg-jpeg-png</title><desc>Created with Sketch.</desc><g stroke="none" stroke-width="1" fill="none" fill-rule="evenodd" sketch:type="MSPage"><g sketch:type="MSArtboardGroup" transform="translate(-135.000000, -180.000000)" fill="#000000"><g sketch:type="MSLayerGroup" transform="translate(141.000000, 183.000000)"><path d="M0,23.5 C0,23.7761424 0.223857625,24 0.5,24 L17.5,24 C17.7761424,24 18,23.7761424 18,23.5 L18,5.19999981 C18,5.06739155 17.9473216,4.94021457 17.8535534,4.84644638 L13.1535526,0.146446574 C13.0597844,0.0526784063 12.9326075,0 12.7999992,0 L0.5,0 C0.223857625,0 0,0.223857625 0,0.5 L0,23.5 Z M17,22.9999997 L1,23 L1,1 L12,1 L12,5.5 C12,5.77614237 12.2238576,6 12.5,6 L17,6 L17,22.9999997 Z M16.5900002,5 L13,5 L13,1.40999985 L16.5900002,5 Z" sketch:type="MSShapeGroup"/><path d="M15.0999985,20 C15.4928826,20 15.7322761,19.5676971 15.5238011,19.2346864 L11.4238027,12.6854921 C11.2280765,12.3728459 10.7727664,12.372514 10.5765846,12.6848745 L8.4608766,16.0464478 L6.920817,13.6497756 C6.72375322,13.3426632 6.27473363,13.3432521 6.07847613,13.6508804 L2.51847857,19.2310806 C2.30613864,19.5639177 2.54520022,20 2.94000244,20 L15.0999985,20 Z M6.50585759,14.8547716 L8.04573574,17.2545823 C8.24362768,17.5629854 8.6950758,17.5607967 8.88996814,17.2504893 L11,13.8999939 L14.192627,19 L3.84924316,19 L6.50585759,14.8547716 Z" sketch:type="MSShapeGroup"/><path d="M7,10.5 C7,9.67157288 6.32842712,9 5.5,9 C4.67157288,9 4,9.67157288 4,10.5 C4,11.3284271 4.67157288,12 5.5,12 C6.32842712,12 7,11.3284271 7,10.5 Z M5.5,11 C5.77614237,11 6,10.7761424 6,10.5 C6,10.2238576 5.77614237,10 5.5,10 C5.22385763,10 5,10.2238576 5,10.5 C5,10.7761424 5.22385763,11 5.5,11 Z" sketch:type="MSShapeGroup"/></g></g></g><text x="0" y="45" fill="#000000" font-size="5px" font-weight="bold" font-family="'Helvetica Neue', Helvetica, Arial-Unicode, Arial, Sans-serif">Created by Pham Thi Dieu Linh</text><text x="0" y="50" fill="#000000" font-size="5px" font-weight="bold" font-family="'Helvetica Neue', Helvetica, Arial-Unicode, Arial, Sans-serif">from the Noun Project</text></svg>