<svg xmlns="http://www.w3.org/2000/svg" xmlns:xlink="http://www.w3.org/1999/xlink" xmlns:sketch="http://www.bohemiancoding.com/sketch/ns" viewBox="0 0 30 37.5" version="1.1" x="0px" y="0px"><title>file_040-video_file-fomat-document-paper-mp4-mov-avi-wmv-movie</title><desc>Created with Sketch.</desc><g stroke="none" stroke-width="1" fill="none" fill-rule="evenodd" sketch:type="MSPage"><g sketch:type="MSArtboardGroup" transform="translate(-180.000000, -180.000000)" fill="#000000"><g sketch:type="MSLayerGroup" transform="translate(186.000000, 183.000000)"><path d="M0,23.5 C0,23.7761424 0.223857625,24 0.5,24 L17.5,24 C17.7761424,24 18,23.7761424 18,23.5 L18,5.19999981 C18,5.06739155 17.9473216,4.94021457 17.8535534,4.84644638 L13.1535526,0.146446574 C13.0597844,0.0526784063 12.9326075,0 12.7999992,0 L0.5,0 C0.223857625,0 0,0.223857625 0,0.5 L0,23.5 Z M17,22.9999997 L1,23 L1,1 L12,1 L12,5.5 C12,5.77614237 12.2238576,6 12.5,6 L17,6 L17,22.9999997 Z M16.5900002,5 L13,5 L13,1.40999985 L16.5900002,5 Z" sketch:type="MSShapeGroup"/><path d="M10.9600067,14 L7,16.2838135 L7,11.7220459 L10.9600067,14 Z M6.74924828,10.4197036 C6.4159157,10.2280243 6,10.4686347 6,10.8531494 L6,17.1499939 C6,17.5346044 6.4161024,17.775203 6.74943531,17.5833321 L12.2218474,14.4333382 C12.5560169,14.2409858 12.5559128,13.7587623 12.2216604,13.5665542 L6.74924828,10.4197036 L6.74924828,10.4197036 Z" sketch:type="MSShapeGroup"/></g></g></g><text x="0" y="45" fill="#000000" font-size="5px" font-weight="bold" font-family="'Helvetica Neue', Helvetica, Arial-Unicode, Arial, Sans-serif">Created by Pham Thi Dieu Linh</text><text x="0" y="50" fill="#000000" font-size="5px" font-weight="bold" font-family="'Helvetica Neue', Helvetica, Arial-Unicode, Arial, Sans-serif">from the Noun Project</text></svg>